<svg width="15" height="9" xmlns="http://www.w3.org/2000/svg" fill="none">

 <g>
  <title>Layer 1</title>
  <path transform="rotate(180 7.5 4.30869)" id="svg_1" fill="#1A767B" d="m7.5,8.61738c-0.28217,0 -0.53894,-0.11286 -0.77032,-0.3386l-6.44187,-6.59424c-0.09594,-0.0903 -0.1693,-0.19188 -0.22009,-0.30474c-0.04515,-0.11851 -0.06772,-0.24549 -0.06772,-0.38093c0,-0.18623 0.04233,-0.35553 0.12698,-0.5079c0.09029,-0.15237 0.2088,-0.27088 0.35553,-0.35553c0.14672,-0.09029 0.3132,-0.13544 0.49943,-0.13544c0.27088,0 0.5079,0.10158 0.71106,0.30474l6.22179,6.37415l-0.82111,0l6.21332,-6.37415c0.2032,-0.20316 0.4402,-0.30474 0.7111,-0.30474c0.1862,0 0.3527,0.04515 0.4994,0.13544c0.1467,0.08465 0.2624,0.20316 0.3471,0.35553c0.0903,0.15237 0.1354,0.32167 0.1354,0.5079c0,0.26524 -0.0959,0.49379 -0.2878,0.68567l-6.44188,6.59424c-0.10723,0.11287 -0.22574,0.19752 -0.35553,0.25395c-0.1298,0.05644 -0.26806,0.08465 -0.41479,0.08465z"/>
 </g>
</svg>