<svg width="15" height="9" viewBox="0 0 15 9" fill="none" xmlns="http://www.w3.org/2000/svg">
<path d="M7.5 8.61738C7.21783 8.61738 6.96106 8.50452 6.72968 8.27878L0.28781 1.68454C0.191874 1.59424 0.11851 1.49266 0.0677201 1.3798C0.0225734 1.26129 0 1.13431 0 0.998871C0 0.812641 0.0423251 0.643341 0.126975 0.490971C0.217269 0.3386 0.335779 0.22009 0.482506 0.13544C0.629233 0.0451467 0.795711 0 0.981941 0C1.25282 0 1.48984 0.10158 1.693 0.30474L7.91479 6.67889H7.09368L13.307 0.30474C13.5102 0.10158 13.7472 0 14.0181 0C14.2043 0 14.3708 0.0451467 14.5175 0.13544C14.6642 0.22009 14.7799 0.3386 14.8646 0.490971C14.9549 0.643341 15 0.812641 15 0.998871C15 1.26411 14.9041 1.49266 14.7122 1.68454L8.27032 8.27878C8.16309 8.39165 8.04458 8.4763 7.91479 8.53273C7.78499 8.58917 7.64673 8.61738 7.5 8.61738Z" fill="#1A767B"/>
</svg>
