<svg width="24" height="24" viewBox="0 0 24 24" fill="none" xmlns="http://www.w3.org/2000/svg">
<path d="M21.1874 14.8879L18.0374 18.0004L17.0249 16.9879C16.6874 16.6504 16.1624 16.6504 15.8249 16.9879C15.4874 17.3254 15.4874 17.8504 15.8249 18.1879L17.4374 19.7629C17.5874 19.9129 17.8124 19.9879 18.0374 19.9879C18.2624 19.9879 18.4499 19.9129 18.6374 19.7629L22.3874 16.0879C22.7249 15.7504 22.7249 15.2254 22.3874 14.8879C22.0499 14.5504 21.5249 14.5504 21.1874 14.8879Z" fill="white"/>
<path d="M21.0375 4.0127H2.96245C1.68745 4.0127 0.637451 5.0627 0.637451 6.3377V17.7002C0.637451 18.9752 1.68745 20.0252 2.96245 20.0252H12.9375C13.3875 20.0252 13.8 19.6502 13.8 19.1627C13.8 18.6752 13.425 18.3002 12.9375 18.3002H2.96245C2.62495 18.3002 2.32495 18.0002 2.32495 17.6627V6.7502L10.725 11.8502C11.1 12.0752 11.55 12.1877 12 12.1877C12.45 12.1877 12.8625 12.0752 13.275 11.8502L21.6749 6.7502V11.5502C21.6749 12.0002 22.0499 12.4127 22.5375 12.4127C23.025 12.4127 23.4 12.0377 23.4 11.5502V6.3002C23.3625 5.0252 22.3125 4.0127 21.0375 4.0127ZM12.375 10.3877C12.15 10.5377 11.85 10.5377 11.625 10.3877L3.86245 5.7002H20.1375L12.375 10.3877Z" fill="white"/>
</svg>
