<svg width="24" height="24" viewBox="0 0 24 24" fill="none" xmlns="http://www.w3.org/2000/svg">
<g clip-path="url(#clip0_829_527)">
<path d="M20.25 3.71289C18.075 1.53789 15.1125 0.337891 12.075 0.337891C5.7 0.337891 0.4875 5.51289 0.4875 11.8879C0.4875 13.9504 1.0125 15.9004 2.025 17.7004L0.375 23.6629L6.5625 22.0879C8.25 22.9879 10.1625 23.5129 12.1125 23.5129C18.45 23.4754 23.625 18.3004 23.625 11.8879C23.625 8.81289 22.425 5.92539 20.25 3.71289ZM12.0375 21.5254C10.35 21.5254 8.5875 21.0379 7.125 20.1379L6.75 19.9129L3.1125 20.8504L4.125 17.3254L3.9 16.9504C2.9625 15.4129 2.4375 13.6129 2.4375 11.8129C2.4375 6.52539 6.7125 2.25039 12.0375 2.25039C14.5875 2.25039 16.9875 3.26289 18.7875 5.06289C20.5875 6.86289 21.6 9.30039 21.6 11.8879C21.675 17.2504 17.325 21.5254 12.0375 21.5254ZM17.325 14.3254C17.025 14.1754 15.6375 13.4629 15.3 13.4254C15.0375 13.3129 14.8125 13.2754 14.6625 13.5754C14.5125 13.8754 13.9125 14.4754 13.7625 14.7004C13.6125 14.8504 13.4625 14.9254 13.125 14.7379C12.825 14.5879 11.925 14.3254 10.8 13.2754C9.9375 12.5254 9.3375 11.5879 9.225 11.2504C9.075 10.9504 9.1875 10.8379 9.375 10.6504C9.525 10.5004 9.675 10.3504 9.7875 10.1254C9.9375 9.97539 9.9375 9.82539 10.0875 9.63789C10.2375 9.48789 10.125 9.26289 10.05 9.11289C9.9375 8.96289 9.4125 7.53789 9.15 6.93789C8.925 6.33789 8.6625 6.45039 8.5125 6.45039C8.3625 6.45039 8.1375 6.45039 7.9875 6.45039C7.8375 6.45039 7.4625 6.48789 7.2375 6.82539C6.975 7.12539 6.225 7.83789 6.225 9.26289C6.225 10.6879 7.2375 12.0004 7.425 12.2629C7.575 12.4129 9.4875 15.3754 12.3375 16.6504C13.0125 16.9504 13.5375 17.1379 13.9875 17.2879C14.6625 17.5129 15.3 17.4379 15.7875 17.4004C16.35 17.3629 17.475 16.7254 17.7375 16.0129C17.9625 15.3754 17.9625 14.7379 17.8875 14.6254C17.8125 14.5504 17.5875 14.4379 17.325 14.3254Z" fill="white"/>
</g>
<defs>
<clipPath id="clip0_829_527">
<rect width="24" height="24" fill="white"/>
</clipPath>
</defs>
</svg>
