<svg width="24" height="24" viewBox="0 0 24 24" fill="none" xmlns="http://www.w3.org/2000/svg">
<path d="M18.225 22.8376C15.1875 22.8376 10.875 20.6626 6.89999 16.9126C1.49999 11.7376 -0.787511 5.96263 1.61249 3.41263C1.72499 3.30013 1.87499 3.18763 2.02499 3.11263L5.06249 1.38763C5.84999 0.937628 6.82499 1.16263 7.34999 1.91263L9.56249 5.06263C9.82499 5.43763 9.93749 5.88763 9.82499 6.33763C9.74999 6.75013 9.48749 7.12513 9.11249 7.38763L7.79999 8.25013C8.81249 9.71263 11.55 13.3501 15.9 15.9376C15.9375 15.9751 15.975 15.9376 15.975 15.9376L16.9125 14.6626C17.4375 13.9501 18.45 13.7626 19.2375 14.2501L22.5375 16.3501C23.325 16.8376 23.55 17.8501 23.0625 18.6376L21.2625 21.5251C21.15 21.6751 21.0375 21.8251 20.925 21.9376C20.25 22.5376 19.3125 22.8376 18.225 22.8376ZM5.92499 2.85013C5.88749 2.85013 5.92499 2.85013 5.92499 2.85013L2.84999 4.57513C1.42499 6.11263 3.18749 11.0251 8.09999 15.6751C13.0875 20.4001 18.225 22.0876 19.875 20.6626L21.675 17.7751L18.375 15.6751C18.3375 15.6751 18.3 15.6751 18.3 15.6751L17.3625 16.9501C16.8375 17.6626 15.825 17.8501 15.075 17.4001C10.3875 14.5876 7.46249 10.6876 6.41249 9.15013C6.14999 8.77513 6.07499 8.32513 6.14999 7.91263C6.22499 7.46263 6.48749 7.08763 6.86249 6.86263L8.17499 6.00013L5.99999 2.88763C5.96249 2.88763 5.92499 2.85013 5.92499 2.85013Z" fill="white"/>
</svg>
