<svg width="14" height="14" viewBox="0 0 14 14" fill="none" xmlns="http://www.w3.org/2000/svg">
<path d="M0 6.60938C0 6.33333 0.0989583 6.09635 0.296875 5.89844C0.494792 5.70052 0.731771 5.60156 1.00781 5.60156H5.60938V1.00781C5.60938 0.731771 5.70573 0.494792 5.89844 0.296875C6.09115 0.0989583 6.32812 0 6.60938 0C6.88542 0 7.1224 0.0989583 7.32031 0.296875C7.51823 0.494792 7.61719 0.731771 7.61719 1.00781V5.60156H12.2188C12.4896 5.60156 12.724 5.70052 12.9219 5.89844C13.1198 6.09635 13.2188 6.33333 13.2188 6.60938C13.2188 6.89062 13.1198 7.13021 12.9219 7.32812C12.724 7.52083 12.4896 7.61719 12.2188 7.61719H7.61719V12.2188C7.61719 12.4896 7.51823 12.724 7.32031 12.9219C7.1224 13.1198 6.88542 13.2188 6.60938 13.2188C6.32812 13.2188 6.09115 13.1198 5.89844 12.9219C5.70573 12.724 5.60938 12.4896 5.60938 12.2188V7.61719H1.00781C0.731771 7.61719 0.494792 7.52083 0.296875 7.32812C0.0989583 7.13021 0 6.89062 0 6.60938Z" fill="#1A767B"/>
</svg>
