<svg width="24" height="24" viewBox="0 0 24 24" fill="none" xmlns="http://www.w3.org/2000/svg">
<g clip-path="url(#clip0_800_3937)">
<path d="M24 12C24 5.37258 18.6274 0 12 0C5.37258 0 0 5.37258 0 12C0 18.6274 5.37258 24 12 24C18.6274 24 24 18.6274 24 12Z" fill="#FAB951"/>
<path d="M17.0297 8.47008C17.3227 8.76305 17.3227 9.23648 17.0297 9.52945L11.0297 15.5295C10.7367 15.8224 10.2633 15.8224 9.97031 15.5295L6.96966 12.5295C6.67678 12.2365 6.67678 11.763 6.96966 11.4701C7.26258 11.1771 7.73742 11.1771 8.03039 11.4701L10.4789 13.938L15.9703 8.47008C16.2633 8.17664 16.7367 8.17664 17.0297 8.47008Z" fill="white"/>
</g>
<defs>
<clipPath id="clip0_800_3937">
<rect width="24" height="24" fill="white"/>
</clipPath>
</defs>
</svg>
