<svg width="14" height="2" viewBox="0 0 14 2" fill="none" xmlns="http://www.w3.org/2000/svg">
<path d="M0.992188 2.00781C0.820312 2.00781 0.658854 1.96354 0.507812 1.875C0.356771 1.78125 0.234375 1.65885 0.140625 1.50781C0.046875 1.35156 0 1.18229 0 1C0 0.817708 0.046875 0.651042 0.140625 0.5C0.234375 0.348958 0.356771 0.229167 0.507812 0.140625C0.658854 0.046875 0.820312 0 0.992188 0H12.2031C12.3802 0 12.5443 0.046875 12.6953 0.140625C12.8464 0.229167 12.9661 0.348958 13.0547 0.5C13.1484 0.651042 13.1953 0.817708 13.1953 1C13.1953 1.18229 13.1484 1.35156 13.0547 1.50781C12.9661 1.65885 12.8464 1.78125 12.6953 1.875C12.5443 1.96354 12.3802 2.00781 12.2031 2.00781H0.992188Z" fill="#1A767B"/>
</svg>
