<svg width="30" height="32" viewBox="0 0 30 32" fill="none" xmlns="http://www.w3.org/2000/svg">
<path d="M18.1329 30C17.0336 30 15.8867 29.7769 14.6922 29.3307C13.505 28.8844 12.2959 28.2268 11.0647 27.3579C9.84087 26.4889 8.62071 25.4125 7.40421 24.1286C6.18771 22.8369 5.16907 21.5335 4.3483 20.2183C3.52753 18.8953 2.90829 17.5997 2.49058 16.3315C2.08019 15.0632 1.875 13.8498 1.875 12.6912C1.875 11.6265 2.02157 10.7263 2.3147 9.99038C2.61516 9.24668 3.0915 8.55385 3.74372 7.91192C3.78036 7.8806 3.82067 7.84538 3.86464 7.80623C3.91593 7.75926 3.96357 7.71621 4.00754 7.67706C4.73304 6.98816 5.45488 6.65153 6.17305 6.66719C6.59077 6.67502 6.98649 6.80027 7.36024 7.04296C7.74131 7.28564 8.1004 7.66141 8.4375 8.17026L10.7569 11.7166C11.116 12.2646 11.2955 12.84 11.2955 13.4427C11.2955 14.0377 11.0647 14.5818 10.603 15.075L9.78957 15.9439C9.65033 16.1005 9.57339 16.2532 9.55873 16.4019C9.5514 16.5428 9.59904 16.6994 9.70163 16.8716C9.8482 17.1143 10.0277 17.3766 10.2403 17.6584C10.4601 17.9402 10.6946 18.2299 10.9438 18.5273C11.2003 18.817 11.4604 19.1027 11.7242 19.3846C11.9807 19.6586 12.2629 19.9482 12.5707 20.2535C12.8858 20.551 13.1899 20.8289 13.483 21.0873C13.7762 21.3456 14.0217 21.5452 14.2195 21.6861C14.3808 21.8114 14.531 21.8701 14.6702 21.8623C14.8095 21.8466 14.9487 21.7605 15.0879 21.6039L15.9014 20.735C16.3704 20.2418 16.8834 19.9991 17.4403 20.0069C17.9973 20.0069 18.5322 20.1948 19.0452 20.5706L22.321 23.0013C22.812 23.3614 23.1711 23.745 23.3982 24.1521C23.6327 24.5514 23.75 24.9702 23.75 25.4086C23.75 25.7765 23.6694 26.1601 23.5082 26.5594C23.3469 26.9586 23.1051 27.354 22.7827 27.7454C22.7387 27.7924 22.6984 27.8393 22.6617 27.8863C22.6251 27.9333 22.5848 27.9802 22.5408 28.0272C21.9546 28.7161 21.3133 29.2171 20.6171 29.5303C19.9283 29.8434 19.1002 30 18.1329 30ZM18.1329 28.0272C18.7264 28.0194 19.2761 27.902 19.7817 27.6749C20.2874 27.4557 20.7197 27.123 21.0788 26.6768C21.1228 26.6377 21.1594 26.5985 21.1888 26.5594C21.2181 26.5202 21.2474 26.4772 21.2767 26.4302C21.5478 26.0936 21.6834 25.757 21.6834 25.4203C21.6834 25.2481 21.6468 25.0876 21.5735 24.9389C21.5075 24.7901 21.3903 24.6571 21.2217 24.5396L18.1768 22.379C17.9863 22.2459 17.7884 22.1833 17.5832 22.1911C17.378 22.1911 17.1838 22.2929 17.0006 22.4964L16.1212 23.4476C15.7182 23.886 15.2931 24.1051 14.8461 24.1051C14.4064 24.1051 13.9997 23.9642 13.6259 23.6824C13.3548 23.4789 13.036 23.2127 12.6696 22.8839C12.3032 22.5473 11.9258 22.1911 11.5374 21.8153C11.1563 21.4317 10.8045 21.0677 10.4821 20.7232C10.0131 20.2379 9.52942 19.6938 9.03109 19.091C8.5401 18.4882 8.14437 17.9598 7.84391 17.5057C7.57276 17.1143 7.43719 16.6798 7.43719 16.2023C7.44451 15.7247 7.65704 15.2707 8.07475 14.8401L8.95415 13.9007C9.14468 13.705 9.24361 13.5015 9.25094 13.2901C9.25827 13.0709 9.19598 12.8556 9.06407 12.6442L6.99749 9.34453C6.79229 9.01573 6.51748 8.85134 6.17305 8.85134C6.01916 8.85134 5.8616 8.89048 5.70038 8.96876C5.53915 9.03922 5.3816 9.14491 5.2277 9.28582C5.19106 9.32496 5.15075 9.36019 5.10678 9.3915C5.07014 9.41499 5.0335 9.45022 4.99686 9.49719C4.57915 9.88078 4.26403 10.3427 4.05151 10.8828C3.83899 11.4152 3.72906 11.9984 3.72173 12.6325C3.70708 13.6267 3.90861 14.6992 4.32632 15.85C4.75136 17.0008 5.34862 18.1672 6.11809 19.3493C6.88756 20.5236 7.78162 21.6509 8.80025 22.7312C9.81156 23.7959 10.8558 24.7314 11.9331 25.5378C13.0177 26.3363 14.0876 26.9547 15.1429 27.3931C16.2055 27.8393 17.2022 28.0507 18.1329 28.0272Z" fill="white"/>
<path d="M18.7252 12.8419C18.5794 12.8419 18.47 12.8057 18.3971 12.7333C18.3284 12.6564 18.2941 12.5613 18.2941 12.4482C18.2941 12.3441 18.3177 12.249 18.3649 12.1631C18.4164 12.0725 18.4721 11.9865 18.5322 11.9051L19.6517 10.3979C19.8232 10.1671 19.9819 9.91817 20.1278 9.65114C20.2736 9.38411 20.3465 9.11482 20.3465 8.84326C20.3465 8.68485 20.3229 8.54228 20.2757 8.41555C20.2328 8.2843 20.1664 8.18247 20.0763 8.11005C19.9862 8.03764 19.8747 8.00143 19.7417 8.00143C19.5573 8.00143 19.4179 8.06932 19.3235 8.2051C19.2335 8.33635 19.1584 8.51512 19.0983 8.74142C19.064 8.85457 19.0126 8.9383 18.9439 8.99261C18.8796 9.0424 18.7938 9.06729 18.6866 9.06729C18.5622 9.06729 18.4657 9.02882 18.3971 8.95188C18.3327 8.87041 18.3006 8.76632 18.3006 8.63959C18.3006 8.40424 18.3627 8.17794 18.4871 7.96069C18.6158 7.74345 18.7895 7.56467 19.0083 7.42437C19.227 7.28406 19.4737 7.21391 19.7482 7.21391C20.1942 7.21391 20.5524 7.36327 20.8226 7.66198C21.0928 7.96069 21.2279 8.33861 21.2279 8.79573C21.2279 9.09445 21.1657 9.38864 21.0414 9.6783C20.917 9.96343 20.6939 10.3165 20.3722 10.7374L19.4329 11.9933V12.0476H20.9577C21.0692 12.0476 21.1572 12.0838 21.2215 12.1563C21.2901 12.2242 21.3244 12.3215 21.3244 12.4482C21.3244 12.5659 21.2923 12.6609 21.2279 12.7333C21.1636 12.8057 21.0735 12.8419 20.9577 12.8419H18.7252ZM24.2904 12.9302C24.1918 12.9302 24.0931 12.894 23.9945 12.8216C23.8958 12.7492 23.8465 12.6247 23.8465 12.4482V11.7693H22.4053C22.2509 11.7693 22.1244 11.7195 22.0257 11.6199C21.9271 11.5158 21.8778 11.3823 21.8778 11.2194C21.8778 11.0202 21.9271 10.803 22.0257 10.5676L23.1774 7.93354C23.2374 7.79323 23.3039 7.67556 23.3768 7.58051C23.4498 7.48094 23.5377 7.404 23.6406 7.34969C23.7436 7.29538 23.8701 7.26822 24.0202 7.26822C24.2304 7.26822 24.402 7.33159 24.5349 7.45831C24.6679 7.58504 24.7344 7.76608 24.7344 8.00143V10.9818H24.9596C25.0882 10.9818 25.1805 11.0202 25.2362 11.0972C25.2963 11.1696 25.3263 11.2601 25.3263 11.3687C25.3263 11.4864 25.2963 11.5837 25.2362 11.6607C25.1762 11.7331 25.0839 11.7693 24.9596 11.7693H24.7344V12.4482C24.7344 12.6111 24.6893 12.7333 24.5993 12.8148C24.5135 12.8917 24.4105 12.9302 24.2904 12.9302ZM23.8658 11.0021V8.12363H23.8401L22.6691 10.9546V11.0021H23.8658Z" fill="white"/>
<path d="M15 10.2419C15 9.48158 15.1137 8.75516 15.341 8.06269C15.5683 7.36569 15.8879 6.72753 16.2996 6.14821C16.7114 5.56436 17.1939 5.06198 17.7472 4.64106C17.8888 4.52791 18.0368 4.48718 18.1912 4.51886C18.3456 4.54602 18.4635 4.62748 18.545 4.76326C18.6265 4.90357 18.648 5.0484 18.6094 5.19775C18.5751 5.34711 18.4914 5.47384 18.3585 5.57794C17.9038 5.92191 17.507 6.33377 17.1682 6.81352C16.8294 7.29328 16.5656 7.82508 16.3768 8.40893C16.1881 8.98825 16.0938 9.59925 16.0938 10.2419C16.0938 11.043 16.2331 11.7943 16.5119 12.4959C16.795 13.1929 17.1854 13.8061 17.6829 14.3357C18.1847 14.8607 18.7659 15.2703 19.4265 15.5645C20.0913 15.8632 20.8033 16.0125 21.5625 16.0125C22.3217 16.0125 23.0316 15.8632 23.6921 15.5645C24.3526 15.2703 24.9317 14.8607 25.4292 14.3357C25.9311 13.8061 26.3214 13.1929 26.6002 12.4959C26.8833 11.7943 27.0248 11.043 27.0248 10.2419C27.0248 9.554 26.9197 8.90452 26.7096 8.29351C26.4994 7.67798 26.2034 7.12129 25.8217 6.62343C25.4442 6.12558 24.9982 5.70466 24.4835 5.36069C23.973 5.01672 23.4133 4.77231 22.8042 4.62748V5.59151C22.8042 5.83592 22.7356 5.9898 22.5983 6.05316C22.4654 6.112 22.311 6.07353 22.1351 5.93775L20.0892 4.41703C19.939 4.30388 19.864 4.17489 19.864 4.03006C19.864 3.88523 19.939 3.7585 20.0892 3.64988L22.1415 2.13594C22.3174 2.00469 22.4718 1.96848 22.6048 2.02732C22.7377 2.08615 22.8042 2.23777 22.8042 2.48218V3.44621C23.5548 3.60462 24.2518 3.88975 24.8952 4.30161C25.5429 4.70895 26.1069 5.21812 26.5873 5.82913C27.072 6.43561 27.4494 7.1145 27.7197 7.86581C27.9899 8.61712 28.125 9.40916 28.125 10.2419C28.125 11.1879 27.9534 12.0795 27.6103 12.9168C27.2672 13.7541 26.7932 14.4918 26.1884 15.13C25.5836 15.7636 24.8845 16.2615 24.091 16.6236C23.3018 16.9856 22.4589 17.1667 21.5625 17.1667C20.6661 17.1667 19.8211 16.9856 19.0276 16.6236C18.2384 16.2615 17.5414 15.7636 16.9366 15.13C16.3318 14.4918 15.8578 13.7541 15.5147 12.9168C15.1716 12.0795 15 11.1879 15 10.2419Z" fill="white"/>
</svg>
