<svg width="24" height="24" viewBox="0 0 24 24" fill="none" xmlns="http://www.w3.org/2000/svg">
  <path
    fill-rule="evenodd"
    clip-rule="evenodd"
    d="M12 2C6.477 2 2 6.476 2 12c0 1.861.507 3.646 1.468 5.202L2 22l4.93-1.42A9.955 9.955 0 0 0 12 22c5.523 0 10-4.476 10-10S17.523 2 12 2Zm0 18.181a8.143 8.143 0 0 1-4.165-1.145l-.298-.176-2.926.842.833-2.854-.194-.31A8.136 8.136 0 0 1 3.82 12c0-4.511 3.668-8.181 8.18-8.181 4.513 0 8.18 3.67 8.18 8.181 0 4.512-3.667 8.181-8.18 8.181Zm4.716-5.94c-.258-.129-1.521-.75-1.757-.835-.236-.086-.407-.128-.579.129-.172.257-.666.835-.815 1.007-.15.171-.3.193-.558.064-.258-.128-1.091-.402-2.08-1.281-.769-.685-1.29-1.531-1.442-1.788-.15-.257-.016-.396.112-.524.116-.115.258-.3.387-.45.129-.15.172-.257.258-.428.086-.172.043-.322-.021-.45-.064-.128-.579-1.395-.794-1.91-.209-.502-.422-.434-.579-.442-.15-.008-.322-.01-.493-.01-.172 0-.45.064-.687.322-.236.257-.9.879-.9 2.145 0 1.266.922 2.488 1.05 2.66.129.171 1.815 2.773 4.397 3.89.615.266 1.096.424 1.47.542.617.196 1.18.168 1.625.102.496-.074 1.521-.622 1.736-1.222.215-.6.215-1.115.15-1.222-.064-.107-.236-.171-.494-.3Z"
    fill="white"
  />
</svg>
