<svg width="70" height="71" viewBox="0 0 70 71" fill="none" xmlns="http://www.w3.org/2000/svg">
<g clip-path="url(#clip0_308_1622)">
<path d="M2.35227 21.3499C2.30036 20.36 2.27441 19.3663 2.27441 18.3671V9.75043" stroke="#F9A825" stroke-width="3" stroke-linecap="round" stroke-linejoin="round"/>
<path d="M51.2488 58.0805C46.5981 62.8755 41.0669 66.9018 34.8221 69.8939C29.3465 67.2705 24.4214 63.8526 20.1562 59.819" stroke="#F9A825" stroke-width="3" stroke-linecap="round" stroke-linejoin="round"/>
<path d="M2.27441 9.75231L34.8221 1.10614L67.3697 9.75231V18.369C67.3697 21.1822 67.1621 23.9623 66.7599 26.6925" stroke="#F9A825" stroke-width="3" stroke-linecap="round" stroke-linejoin="round"/>
<g clip-path="url(#clip1_308_1622)">
<path d="M62.9623 28.4778L59.6734 20.2538C59.3944 19.558 58.9129 18.962 58.2913 18.543C57.6697 18.1241 56.9366 17.9015 56.1871 17.9041H48.0634V16.0243C48.0634 15.5258 47.8654 15.0476 47.5129 14.6951C47.1605 14.3426 46.6824 14.1445 46.184 14.1445H10.4754C9.47846 14.1445 8.52239 14.5406 7.81748 15.2457C7.11257 15.9507 6.71655 16.907 6.71655 17.9041V44.2209C6.71655 45.218 7.11257 46.1743 7.81748 46.8793C8.52239 47.5844 9.47846 47.9805 10.4754 47.9805H14.4691C14.8831 49.5979 15.8236 51.0314 17.1422 52.0551C18.4608 53.0789 20.0825 53.6345 21.7518 53.6345C23.421 53.6345 25.0427 53.0789 26.3614 52.0551C27.68 51.0314 28.6204 49.5979 29.0344 47.9805H40.7807C41.1947 49.5979 42.1352 51.0314 43.4538 52.0551C44.7724 53.0789 46.3942 53.6345 48.0634 53.6345C49.7326 53.6345 51.3544 53.0789 52.673 52.0551C53.9916 51.0314 54.932 49.5979 55.3461 47.9805H59.3398C60.3367 47.9805 61.2928 47.5844 61.9977 46.8793C62.7026 46.1743 63.0986 45.218 63.0986 44.2209V29.1827C63.0995 28.9411 63.0532 28.7017 62.9623 28.4778ZM48.0634 21.6636H56.1871L58.4424 27.303H48.0634V21.6636ZM10.4754 17.9041H44.3046V32.9423H10.4754V17.9041ZM21.7518 49.8602C21.0083 49.8602 20.2816 49.6398 19.6635 49.2267C19.0454 48.8135 18.5636 48.2264 18.2791 47.5394C17.9946 46.8525 17.9202 46.0965 18.0652 45.3672C18.2102 44.638 18.5682 43.9681 19.0939 43.4423C19.6196 42.9165 20.2893 42.5585 21.0185 42.4134C21.7476 42.2683 22.5034 42.3428 23.1902 42.6273C23.877 42.9119 24.4641 43.3937 24.8771 44.012C25.2901 44.6303 25.5106 45.3571 25.5106 46.1007C25.5106 47.0978 25.1146 48.0541 24.4096 48.7591C23.7047 49.4642 22.7487 49.8602 21.7518 49.8602ZM40.7807 44.2209H29.0344C28.6204 42.6035 27.68 41.17 26.3614 40.1463C25.0427 39.1225 23.421 38.5669 21.7518 38.5669C20.0825 38.5669 18.4608 39.1225 17.1422 40.1463C15.8236 41.17 14.8831 42.6035 14.4691 44.2209H10.4754V36.7018H44.3046V39.5943C43.4403 40.0939 42.6838 40.76 42.0788 41.5542C41.4739 42.3484 41.0327 43.2549 40.7807 44.2209ZM48.0634 49.8602C47.32 49.8602 46.5932 49.6398 45.9751 49.2267C45.357 48.8135 44.8752 48.2264 44.5907 47.5394C44.3062 46.8525 44.2318 46.0965 44.3768 45.3672C44.5218 44.638 44.8798 43.9681 45.4055 43.4423C45.9312 42.9165 46.6009 42.5585 47.3301 42.4134C48.0592 42.2683 48.815 42.3428 49.5018 42.6273C50.1886 42.9119 50.7757 43.3937 51.1887 44.012C51.6017 44.6303 51.8222 45.3571 51.8222 46.1007C51.8222 47.0978 51.4262 48.0541 50.7213 48.7591C50.0163 49.4642 49.0603 49.8602 48.0634 49.8602ZM59.3398 44.2209H55.3461C54.9271 42.6075 53.9848 41.1786 52.667 40.1581C51.3491 39.1376 49.73 38.5832 48.0634 38.5816V31.0625H59.3398V44.2209Z" fill="#F9A825"/>
</g>
</g>
<defs>
<clipPath id="clip0_308_1622">
<rect width="70" height="71" fill="white"/>
</clipPath>
<clipPath id="clip1_308_1622">
<rect width="60.1408" height="60.1528" fill="white" transform="translate(2.95776 0.986084)"/>
</clipPath>
</defs>
</svg>
