<svg width="68" height="71" viewBox="0 0 68 71" fill="none" xmlns="http://www.w3.org/2000/svg">
<g clip-path="url(#clip0_308_1676)">
<path d="M28.8171 2.85429C28.8171 1.88873 28.0103 1.10559 27.0155 1.10559H20.6328C19.6379 1.10559 18.8311 1.88873 18.8311 2.85429H17.2686C15.9036 2.85429 14.7987 3.92856 14.7987 5.2516C14.7987 6.57648 15.9055 7.64892 17.2686 7.64892H30.3796C31.7446 7.64892 32.8495 6.57464 32.8495 5.2516C32.8495 3.92672 31.7427 2.85429 30.3796 2.85429H28.8171Z" stroke="#F9A825" stroke-width="3" stroke-linecap="round" stroke-linejoin="round"/>
<path d="M22.3186 4.63983H25.3277" stroke="#F9A825" stroke-width="3" stroke-linecap="round" stroke-linejoin="round"/>
<path d="M33.6773 62.1496H1.1391V5.25159H10.7378" stroke="#F9A825" stroke-width="3" stroke-linecap="round" stroke-linejoin="round"/>
<path d="M37.0717 5.25159H46.5072V31.3383" stroke="#F9A825" stroke-width="3" stroke-linecap="round" stroke-linejoin="round"/>
<path d="M16.8016 25.2906H39.6309" stroke="#F9A825" stroke-width="3" stroke-linecap="round" stroke-linejoin="round"/>
<path d="M16.8016 29.7757H34.6853" stroke="#F9A825" stroke-width="3" stroke-linecap="round" stroke-linejoin="round"/>
<path d="M16.8016 37.1206H31.2605" stroke="#F9A825" stroke-width="3" stroke-linecap="round" stroke-linejoin="round"/>
<path d="M16.8016 41.6057H27.7255" stroke="#F9A825" stroke-width="3" stroke-linecap="round" stroke-linejoin="round"/>
<path d="M16.8016 48.9506H26.5978" stroke="#F9A825" stroke-width="3" stroke-linecap="round" stroke-linejoin="round"/>
<path d="M16.8016 53.4356H27.7255" stroke="#F9A825" stroke-width="3" stroke-linecap="round" stroke-linejoin="round"/>
<path d="M16.8016 17.6436H36.3959" stroke="#F9A825" stroke-width="3" stroke-linecap="round" stroke-linejoin="round"/>
<path d="M5.47714 25.2906V29.7757H9.85315" stroke="#F9A825" stroke-width="3" stroke-linecap="round" stroke-linejoin="round"/>
<path d="M5.47714 37.1206V41.6057H9.85315" stroke="#F9A825" stroke-width="3" stroke-linecap="round" stroke-linejoin="round"/>
<path d="M5.47714 48.9506V53.4356H9.85315" stroke="#F9A825" stroke-width="3" stroke-linecap="round" stroke-linejoin="round"/>
<path d="M8.98932 25.65L10.1113 26.739L12.1389 24.3546" stroke="#F9A825" stroke-width="3" stroke-linecap="round" stroke-linejoin="round"/>
<path d="M8.98932 37.48L10.1113 38.569L12.1389 36.1846" stroke="#F9A825" stroke-width="3" stroke-linecap="round" stroke-linejoin="round"/>
<path d="M57.9551 57.0454L65.9629 64.8178C67.159 65.9787 67.159 67.8619 65.9629 69.0228C64.7669 70.1837 62.8266 70.1837 61.6306 69.0228L53.5791 61.208" stroke="#F9A825" stroke-width="3" stroke-linecap="round" stroke-linejoin="round"/>
<path d="M45.6624 62.7835C53.5692 62.7835 59.9789 56.5622 59.9789 48.8879C59.9789 41.2136 53.5692 34.9923 45.6624 34.9923C37.7556 34.9923 31.3459 41.2136 31.3459 48.8879C31.3459 56.5622 37.7556 62.7835 45.6624 62.7835Z" stroke="#F9A825" stroke-width="3" stroke-linecap="round" stroke-linejoin="round"/>
<path d="M52.9878 55.9967C57.0329 52.0706 57.0329 45.705 52.9878 41.7788C48.9427 37.8526 42.3843 37.8526 38.3392 41.7788C34.2941 45.705 34.2941 52.0706 38.3392 55.9967C42.3843 59.9229 48.9427 59.9229 52.9878 55.9967Z" stroke="#F9A825" stroke-width="3" stroke-linecap="round" stroke-linejoin="round"/>
<path d="M45.6624 43.616V50.4818" stroke="#F9A825" stroke-width="3" stroke-linecap="round" stroke-linejoin="round"/>
<path d="M45.6624 53.9258V54.1229" stroke="#F9A825" stroke-width="3" stroke-linecap="round" stroke-linejoin="round"/>
<path d="M28.8171 2.85429C28.8171 1.88873 28.0103 1.10559 27.0155 1.10559H20.6328C19.6379 1.10559 18.8311 1.88873 18.8311 2.85429H17.2686C15.9036 2.85429 14.7987 3.92856 14.7987 5.2516C14.7987 6.57648 15.9055 7.64892 17.2686 7.64892H30.3796C31.7446 7.64892 32.8495 6.57464 32.8495 5.2516C32.8495 3.92672 31.7427 2.85429 30.3796 2.85429H28.8171Z" stroke="#F9A825" stroke-width="3" stroke-linecap="round" stroke-linejoin="round"/>
<path d="M22.3186 4.63983H25.3277" stroke="#F9A825" stroke-width="3" stroke-linecap="round" stroke-linejoin="round"/>
<path d="M33.6773 62.1496H1.1391V5.25159H10.7378" stroke="#F9A825" stroke-width="3" stroke-linecap="round" stroke-linejoin="round"/>
<path d="M37.0717 5.25159H46.5072V31.3383" stroke="#F9A825" stroke-width="3" stroke-linecap="round" stroke-linejoin="round"/>
<path d="M16.8016 25.2906H39.6309" stroke="#F9A825" stroke-width="3" stroke-linecap="round" stroke-linejoin="round"/>
<path d="M16.8016 29.7757H34.6853" stroke="#F9A825" stroke-width="3" stroke-linecap="round" stroke-linejoin="round"/>
<path d="M16.8016 37.1206H31.2605" stroke="#F9A825" stroke-width="3" stroke-linecap="round" stroke-linejoin="round"/>
<path d="M16.8016 41.6057H27.7255" stroke="#F9A825" stroke-width="3" stroke-linecap="round" stroke-linejoin="round"/>
<path d="M16.8016 48.9506H26.5978" stroke="#F9A825" stroke-width="3" stroke-linecap="round" stroke-linejoin="round"/>
<path d="M16.8016 53.4356H27.7255" stroke="#F9A825" stroke-width="3" stroke-linecap="round" stroke-linejoin="round"/>
<path d="M16.8016 17.6436H36.3959" stroke="#F9A825" stroke-width="3" stroke-linecap="round" stroke-linejoin="round"/>
<path d="M5.47714 25.2906V29.7757H9.85315" stroke="#F9A825" stroke-width="3" stroke-linecap="round" stroke-linejoin="round"/>
<path d="M5.47714 37.1206V41.6057H9.85315" stroke="#F9A825" stroke-width="3" stroke-linecap="round" stroke-linejoin="round"/>
<path d="M5.47714 48.9506V53.4356H9.85315" stroke="#F9A825" stroke-width="3" stroke-linecap="round" stroke-linejoin="round"/>
<path d="M8.98932 25.65L10.1113 26.739L12.1389 24.3546" stroke="#F9A825" stroke-width="3" stroke-linecap="round" stroke-linejoin="round"/>
<path d="M8.98932 37.48L10.1113 38.569L12.1389 36.1846" stroke="#F9A825" stroke-width="3" stroke-linecap="round" stroke-linejoin="round"/>
<path d="M57.9551 57.0454L65.9629 64.8178C67.159 65.9787 67.159 67.8619 65.9629 69.0228C64.7669 70.1837 62.8266 70.1837 61.6306 69.0228L53.5791 61.208" stroke="#F9A825" stroke-width="3" stroke-linecap="round" stroke-linejoin="round"/>
<path d="M45.6624 62.7835C53.5692 62.7835 59.9789 56.5622 59.9789 48.8879C59.9789 41.2136 53.5692 34.9923 45.6624 34.9923C37.7556 34.9923 31.3459 41.2136 31.3459 48.8879C31.3459 56.5622 37.7556 62.7835 45.6624 62.7835Z" stroke="#F9A825" stroke-width="3" stroke-linecap="round" stroke-linejoin="round"/>
<path d="M52.9878 55.9967C57.0329 52.0706 57.0329 45.705 52.9878 41.7788C48.9427 37.8526 42.3843 37.8526 38.3392 41.7788C34.2941 45.705 34.2941 52.0706 38.3392 55.9967C42.3843 59.9229 48.9427 59.9229 52.9878 55.9967Z" stroke="#F9A825" stroke-width="3" stroke-linecap="round" stroke-linejoin="round"/>
<path d="M45.6624 43.616V50.4818" stroke="#F9A825" stroke-width="3" stroke-linecap="round" stroke-linejoin="round"/>
<path d="M45.6624 53.9258V54.1229" stroke="#F9A825" stroke-width="3" stroke-linecap="round" stroke-linejoin="round"/>
</g>
<defs>
<clipPath id="clip0_308_1676">
<rect width="68" height="71" fill="white"/>
</clipPath>
</defs>
</svg>
