<svg width="69" height="65" viewBox="0 0 69 65" fill="none" xmlns="http://www.w3.org/2000/svg">
<path d="M48.8125 24.4062C54.1085 24.4062 59.1877 26.5101 62.9325 30.255C66.6774 33.9998 68.7812 39.079 68.7812 44.375C68.7812 49.671 66.6774 54.7502 62.9325 58.495C59.1877 62.2399 54.1085 64.3438 48.8125 64.3438C43.5165 64.3438 38.4373 62.2399 34.6925 58.495C30.9476 54.7502 28.8438 49.671 28.8438 44.375C28.8438 39.079 30.9476 33.9998 34.6925 30.255C38.4373 26.5101 43.5165 24.4062 48.8125 24.4062ZM50.9247 32.66C50.7966 32.1983 50.5206 31.7913 50.1392 31.5012C49.7577 31.2112 49.2917 31.0542 48.8125 31.0542C48.3333 31.0542 47.8673 31.2112 47.4858 31.5012C47.1044 31.7913 46.8284 32.1983 46.7003 32.66L44.5836 39.4627H37.7276C35.5754 39.4627 34.6791 42.3293 36.4186 43.6473L41.9654 47.8496L39.8443 54.6478C39.1787 56.7778 41.5261 58.5528 43.2656 57.2349L48.8125 53.0326L54.3594 57.2349C56.0989 58.5528 58.4419 56.7778 57.7763 54.6478L55.6596 47.8496L61.2064 43.6473C62.9459 42.3293 62.0496 39.4627 59.8974 39.4627H53.0414L50.9247 32.66ZM29.9886 28.8438C28.8599 30.2127 27.8838 31.7007 27.0776 33.2812H8.875C7.6981 33.2812 6.56941 33.7488 5.73721 34.581C4.90502 35.4132 4.4375 36.5419 4.4375 37.7188C4.4375 39.973 5.7865 42.1208 8.57325 43.8203C11.36 45.5199 15.3804 46.5938 19.9688 46.5938C21.5485 46.5938 23.0617 46.4518 24.4817 46.2166C24.5911 47.7253 24.8322 49.1853 25.205 50.5964C23.475 50.889 21.7233 51.0344 19.9688 51.0312C14.7547 51.0312 9.89563 49.8242 6.26131 47.6144C2.62256 45.3956 0 42.0009 0 37.7188C0 35.365 0.935042 33.1076 2.59943 31.4432C4.26381 29.7788 6.5212 28.8438 8.875 28.8438H29.9886ZM19.9688 0C23.2052 0 26.3091 1.28568 28.5977 3.57421C30.8862 5.86274 32.1719 8.96665 32.1719 12.2031C32.1719 15.4396 30.8862 18.5435 28.5977 20.832C26.3091 23.1206 23.2052 24.4062 19.9688 24.4062C16.7323 24.4062 13.6284 23.1206 11.3398 20.832C9.05131 18.5435 7.76562 15.4396 7.76562 12.2031C7.76562 8.96665 9.05131 5.86274 11.3398 3.57421C13.6284 1.28568 16.7323 0 19.9688 0ZM49.8376 4.47744C52.2985 4.72999 54.5785 5.88601 56.2366 7.72199C57.8947 9.55798 58.8133 11.9435 58.8146 14.4174L58.7614 15.4381C58.5395 17.6124 57.6165 19.5782 56.2231 21.1181C53.8467 20.3618 51.3685 19.9742 48.8746 19.9688C50.343 19.9535 51.7457 19.3575 52.7759 18.3111C53.8062 17.2647 54.3802 15.8529 54.3726 14.3845C54.365 12.916 53.7763 11.5103 52.7352 10.4746C51.6942 9.43893 50.2854 8.85755 48.8169 8.85755C47.3485 8.85755 45.9397 9.43893 44.8986 10.4746C43.8576 11.5103 43.2689 12.916 43.2613 14.3845C43.2536 15.8529 43.8277 17.2647 44.858 18.3111C45.8882 19.3575 47.2908 19.9535 48.7593 19.9688C46.2656 19.9727 43.7874 20.3588 41.4107 21.1136C39.9819 19.5395 39.0954 17.5487 38.8814 15.4336L38.8281 14.4219C38.827 13.1092 39.0846 11.8092 39.5864 10.5962C40.0882 9.38328 40.8243 8.28117 41.7525 7.35298C42.6807 6.42479 43.7828 5.68873 44.9957 5.18694C46.2087 4.68514 47.5087 4.42746 48.8214 4.42862L49.8376 4.47744ZM19.9688 4.4375C17.9092 4.4375 15.934 5.25566 14.4776 6.712C13.0213 8.16834 12.2031 10.1436 12.2031 12.2031C12.2031 14.2627 13.0213 16.2379 14.4776 17.6943C15.934 19.1506 17.9092 19.9688 19.9688 19.9688C22.0283 19.9688 24.0035 19.1506 25.4599 17.6943C26.9162 16.2379 27.7344 14.2627 27.7344 12.2031C27.7344 10.1436 26.9162 8.16834 25.4599 6.712C24.0035 5.25566 22.0283 4.4375 19.9688 4.4375Z" fill="#F9A825"/>
</svg>
