<svg width="77" height="71" viewBox="0 0 77 71" fill="none" xmlns="http://www.w3.org/2000/svg">
<g clip-path="url(#clip0_308_1648)">
<path d="M48.1497 69.7055H1.30066V1.29449H54.499V59.1491" stroke="#F9A825" stroke-width="3" stroke-linecap="round" stroke-linejoin="round"/>
<path d="M15.9893 10.5349L27.8988 7.36993L39.8083 10.5349V13.6891C39.8083 21.7322 35.1802 29.0654 27.8988 32.5562C20.6174 29.0654 15.9893 21.7322 15.9893 13.6891V10.5349Z" stroke="#F9A825" stroke-width="3" stroke-linecap="round" stroke-linejoin="round"/>
<path d="M10.6848 40.1288H45.1149" stroke="#F9A825" stroke-width="3" stroke-linecap="round" stroke-linejoin="round"/>
<path d="M10.6848 48.8148H45.1149" stroke="#F9A825" stroke-width="3" stroke-linecap="round" stroke-linejoin="round"/>
<path d="M10.6848 57.5029H40.3155" stroke="#F9A825" stroke-width="3" stroke-linecap="round" stroke-linejoin="round"/>
<path d="M30.138 14.7786H27.3741C26.1602 14.7786 25.1782 15.7581 25.1782 16.9641V17.1605C25.1782 18.3686 26.1624 19.346 27.3741 19.346H28.4233C29.6372 19.346 30.6192 20.3255 30.6192 21.5315C30.6192 22.7397 29.6351 23.717 28.4233 23.717H25.6595" stroke="#F9A825" stroke-width="3" stroke-linecap="round" stroke-linejoin="round"/>
<path d="M27.8987 14.7787V12.6924" stroke="#F9A825" stroke-width="3" stroke-linecap="round" stroke-linejoin="round"/>
<path d="M27.8987 25.8076V23.7192" stroke="#F9A825" stroke-width="3" stroke-linecap="round" stroke-linejoin="round"/>
<path d="M46.4415 60.1285L53.8638 68.5383L75.6993 44.1374" stroke="#F9A825" stroke-width="3" stroke-linecap="round" stroke-linejoin="round"/>
</g>
<defs>
<clipPath id="clip0_308_1648">
<rect width="77" height="71" fill="white"/>
</clipPath>
</defs>
</svg>
